<svg width="19" height="19" viewBox="0 0 19 19" fill="none" xmlns="http://www.w3.org/2000/svg">
<path fill-rule="evenodd" clip-rule="evenodd" d="M13.7826 8.16755L10.63 6.06582V2.82925L16.21 6.54927L13.7826 8.16755ZM3.24998 6.54927L8.82996 2.82929V6.06585L5.67741 8.16755L3.24998 6.54927ZM1.14252 5.79091L9.21915 0.406491C9.36392 0.307185 9.5397 0.249268 9.72996 0.249268C9.91939 0.249268 10.0945 0.306683 10.2389 0.405199L18.3172 5.79073C18.5662 5.95017 18.73 6.22919 18.73 6.54917L18.73 11.9492C18.73 12.2673 18.5681 12.545 18.3215 12.7049L10.2453 18.0889C10.0997 18.1902 9.92222 18.2493 9.72996 18.2493C9.5372 18.2493 9.3593 18.1899 9.21346 18.0882L1.13809 12.7046C0.891731 12.5446 0.72998 12.2671 0.72998 11.9492V6.54927V6.54917C0.72998 6.22932 0.893671 5.95039 1.14252 5.79091ZM10.63 15.6692L16.21 11.9492L13.7826 10.3309L10.63 12.4326V15.6692ZM8.82996 12.4326V15.6692L3.24998 11.9492L5.67741 10.3309L8.82996 12.4326ZM4.05491 9.24922L2.52998 8.2326V10.2658L4.05491 9.24922ZM16.93 8.23259L15.4051 9.24922L16.93 10.2658V8.23259ZM7.29991 9.24922L9.72998 7.62917L12.1601 9.24922L9.72998 10.8693L7.29991 9.24922Z" fill="#272727"/>
</svg>
