<svg width="19" height="19" viewBox="0 0 19 19" fill="none" xmlns="http://www.w3.org/2000/svg">
<path d="M9.44995 0.77002C4.47995 0.77002 0.449951 4.80002 0.449951 9.77002C0.449951 14.74 4.47995 18.77 9.44995 18.77H13.95V16.97H9.44995C5.53995 16.97 2.24995 13.68 2.24995 9.77002C2.24995 5.86002 5.53995 2.57002 9.44995 2.57002C13.36 2.57002 16.65 5.86002 16.65 9.77002V11.06C16.65 11.77 16.01 12.47 15.3 12.47C14.59 12.47 13.95 11.77 13.95 11.06V9.77002C13.95 7.29002 11.93 5.27002 9.44995 5.27002C6.96995 5.27002 4.94995 7.29002 4.94995 9.77002C4.94995 12.25 6.96995 14.27 9.44995 14.27C10.69 14.27 11.83 13.77 12.64 12.95C13.23 13.75 14.23 14.27 15.3 14.27C17.07 14.27 18.45 12.83 18.45 11.06V9.77002C18.45 4.80002 14.42 0.77002 9.44995 0.77002V0.77002ZM9.44995 12.47C7.95995 12.47 6.74995 11.26 6.74995 9.77002C6.74995 8.28002 7.95995 7.07002 9.44995 7.07002C10.94 7.07002 12.15 8.28002 12.15 9.77002C12.15 11.26 10.94 12.47 9.44995 12.47Z" fill="#272727"/>
</svg>
