<svg width="19" height="19" viewBox="0 0 19 19" fill="none" xmlns="http://www.w3.org/2000/svg">
<path fill-rule="evenodd" clip-rule="evenodd" d="M0.47998 9.4719C0.47998 4.37395 4.60998 0.245605 9.70998 0.245605H9.72998C14.83 0.245605 18.96 4.37395 18.96 9.4719C18.96 13.5503 16.31 17.0089 12.65 18.2284C12.19 18.3183 12.02 18.0385 12.02 17.7885C12.02 17.6895 12.0211 17.5142 12.0225 17.2794V17.2794V17.2793V17.2792V17.2791V17.2789V17.2787C12.0255 16.8026 12.03 16.0826 12.03 15.2596C12.03 14.3999 11.73 13.8401 11.4 13.5503C13.45 13.3203 15.61 12.5407 15.61 9.00208C15.61 7.99249 15.25 7.17282 14.66 6.52308C14.76 6.29317 15.07 5.35355 14.57 4.08406C14.57 4.08406 13.79 3.84416 12.03 5.03368C11.29 4.83376 10.5 4.72381 9.71998 4.72381C8.93998 4.72381 8.14998 4.83376 7.40998 5.03368C5.63998 3.83416 4.86998 4.08406 4.86998 4.08406C4.36998 5.35355 4.67998 6.29317 4.77998 6.52308C4.18998 7.17282 3.82998 7.99249 3.82998 9.00208C3.82998 12.5407 5.97998 13.3303 8.02998 13.5603C7.75998 13.7902 7.51998 14.19 7.43998 14.7898C6.90998 15.0197 5.56998 15.4295 4.74998 14.0201C4.74998 14.0201 4.26998 13.1404 3.33998 13.0704C3.33998 13.0704 2.43998 13.0605 3.27998 13.6302C3.27998 13.6302 3.87998 13.9101 4.29998 14.9797C4.29998 14.9797 4.83998 16.629 7.40998 16.0692C7.41998 16.8389 7.41998 17.5686 7.41998 17.7885C7.41998 18.0285 7.24998 18.3183 6.78998 18.2284C3.11998 17.0089 0.47998 13.5503 0.47998 9.4719ZM3.81997 13.5202C3.88997 13.5502 3.97997 13.4902 3.97997 13.4902C4.00997 13.4402 3.96997 13.3802 3.89997 13.3502C3.82997 13.3202 3.75997 13.3302 3.73997 13.3802C3.71997 13.4302 3.74997 13.4902 3.81997 13.5202ZM4.34996 13.9102C4.34996 13.9102 4.21996 13.9302 4.15996 13.8702C4.09996 13.8102 4.08996 13.7202 4.12996 13.6802C4.17996 13.6402 4.25996 13.6602 4.31996 13.7202C4.37996 13.7902 4.38996 13.8702 4.34996 13.9102ZM4.49996 14.36C4.55996 14.44 4.64996 14.48 4.70996 14.44C4.76996 14.4 4.76996 14.3 4.70996 14.22C4.64996 14.14 4.55996 14.1 4.49996 14.14C4.43996 14.18 4.43996 14.28 4.49996 14.36ZM5.20996 14.9497C5.15996 15.0097 5.04996 14.9897 4.96996 14.9097C4.88996 14.8397 4.86996 14.7297 4.91996 14.6697C4.96996 14.6097 5.07996 14.6297 5.15996 14.7097C5.23996 14.7797 5.25996 14.8897 5.20996 14.9497ZM5.66996 15.3197C5.76996 15.3597 5.87996 15.3197 5.89996 15.2497C5.91996 15.1797 5.84996 15.0897 5.74996 15.0597C5.64996 15.0197 5.53996 15.0597 5.51996 15.1297C5.49996 15.1997 5.56996 15.2897 5.66996 15.3197ZM6.65 15.3095C6.65 15.3895 6.56 15.4495 6.45 15.4495C6.34 15.4495 6.25 15.3895 6.25 15.3195C6.25 15.2395 6.34 15.1795 6.45 15.1795C6.56 15.1795 6.65 15.2395 6.65 15.3095ZM7.19 15.3595C7.3 15.3395 7.37 15.2595 7.36 15.1895C7.35 15.1195 7.25 15.0695 7.14 15.0895C7.03 15.1095 6.96 15.1795 6.97 15.2595C6.98 15.3295 7.08 15.3795 7.19 15.3595Z" fill="#272727"/>
</svg>
