<svg width="19" height="19" viewBox="0 0 19 19" fill="none" xmlns="http://www.w3.org/2000/svg">
<path fill-rule="evenodd" clip-rule="evenodd" d="M9.45996 1.92188C11.8627 1.92188 12.153 1.92188 13.104 1.97192C13.985 2.01196 14.4556 2.16211 14.7759 2.28223C15.1963 2.44238 15.4967 2.64258 15.807 2.95288C16.1173 3.26343 16.3176 3.56372 16.4778 3.98413C16.5979 4.30444 16.748 4.7749 16.7881 5.65601C16.8281 6.60693 16.8381 6.88745 16.8381 9.30005C16.8381 11.7126 16.8381 11.9929 16.7881 12.9441C16.748 13.825 16.5979 14.2957 16.4778 14.616C16.3176 15.0364 16.1173 15.3367 15.807 15.6472C15.6377 15.8167 15.4713 15.9531 15.2867 16.0681C15.1332 16.1641 14.9669 16.2451 14.7759 16.3179C14.4556 16.438 13.985 16.5881 13.104 16.6282C12.153 16.6682 11.8727 16.6782 9.45996 16.6782C7.04724 16.6782 6.76697 16.6782 5.81592 16.6282C4.93494 16.5881 4.46436 16.438 4.14404 16.3179C3.72363 16.1577 3.42322 15.9575 3.11292 15.6472C2.80261 15.3367 2.60229 15.0364 2.44214 14.616C2.32202 14.2957 2.17188 13.825 2.13184 12.9441C2.0918 11.9929 2.08179 11.7126 2.08179 9.30005C2.08179 6.88745 2.08179 6.60693 2.13184 5.65601C2.17188 4.7749 2.32202 4.30444 2.44214 3.98413C2.60229 3.56372 2.80261 3.26343 3.11292 2.95288C3.29114 2.77466 3.46619 2.63281 3.6626 2.51392C3.80811 2.42578 3.96521 2.35034 4.14404 2.28223C4.46436 2.16211 4.93494 2.01196 5.81592 1.97192C6.76697 1.93188 7.04724 1.92188 9.45996 1.92188ZM9.45996 0.300049C7.01721 0.300049 6.70691 0.310059 5.74585 0.350098C4.78479 0.390137 4.13403 0.550293 3.56335 0.770508C2.97278 1.00073 2.47217 1.31128 1.97168 1.81177C1.47107 2.31226 1.16077 2.81274 0.930542 3.40356C0.710205 3.97412 0.560059 4.63477 0.51001 5.58594C0.469971 6.54688 0.459961 6.85742 0.459961 9.30005C0.459961 10.1072 0.46106 10.6816 0.463989 11.1235C0.469849 12.0188 0.483154 12.3708 0.51001 13.0142C0.550049 13.9753 0.710205 14.626 0.930542 15.1965C1.16077 15.7874 1.47107 16.2878 1.97168 16.7883C2.47217 17.2888 2.97278 17.5994 3.56335 17.8296C4.13403 18.0498 4.7948 18.2 5.74585 18.25C6.70691 18.29 7.01721 18.3 9.45996 18.3C11.9027 18.3 12.213 18.29 13.1741 18.25C14.1351 18.21 14.7859 18.0498 15.3566 17.8296C15.9471 17.5994 16.4478 17.2888 16.9482 16.7883C17.4489 16.2878 17.7592 15.7874 17.9895 15.1965C18.2097 14.626 18.3599 13.9653 18.4099 13.0142C18.4225 12.7119 18.4321 12.4741 18.4393 12.2141L18.4456 11.9617C18.4565 11.4343 18.46 10.7351 18.46 9.30005C18.46 6.85742 18.45 6.54688 18.4099 5.58594C18.3699 4.62476 18.2097 3.97412 17.9895 3.40356C17.7592 2.81274 17.4489 2.31226 16.9482 1.81177C16.4478 1.31128 15.9471 1.00073 15.3566 0.770508C14.7859 0.550293 14.1251 0.400146 13.1741 0.350098C12.6774 0.329346 12.3545 0.31665 11.821 0.309326C11.3225 0.30249 10.6401 0.300049 9.45996 0.300049ZM9.45996 4.68481C6.9071 4.68481 4.83484 6.75708 4.83484 9.31006C4.83484 11.8628 6.9071 13.9351 9.45996 13.9351C12.0128 13.9351 14.0851 11.8628 14.0851 9.31006C14.0851 6.75708 12.0128 4.68481 9.45996 4.68481ZM9.45996 12.3132C7.7981 12.3132 6.45667 10.9719 6.45667 9.31006C6.45667 7.64819 7.7981 6.30664 9.45996 6.30664C11.1218 6.30664 12.4633 7.64819 12.4633 9.31006C12.4633 10.9719 11.1218 12.3132 9.45996 12.3132ZM14.2753 5.58569C14.876 5.58569 15.3564 5.10522 15.3564 4.50464C15.3564 3.90381 14.876 3.42334 14.2753 3.42334C13.6746 3.42334 13.1941 3.90381 13.1941 4.50464C13.1941 5.10522 13.6746 5.58569 14.2753 5.58569Z" fill="#272727"/>
</svg>
