<svg width="19" height="19" viewBox="0 0 19 19" fill="none" xmlns="http://www.w3.org/2000/svg">
<path d="M18.7311 18.2387H14.9957V12.3974C14.9957 11.0006 14.9745 9.21223 13.0592 9.21223C11.1438 9.21223 10.8158 10.7255 10.8158 12.3022V18.2493H7.08033V6.21752H10.657V7.85773H10.71C11.4401 6.60906 12.7946 5.86832 14.2444 5.92123C18.0221 5.92123 18.7205 8.408 18.7205 11.6461V18.2387H18.7311ZM2.87927 4.57731C1.68351 4.57731 0.709961 3.60376 0.709961 2.408C0.709961 1.22281 1.68351 0.249268 2.87927 0.249268C4.07504 0.249268 5.04858 1.22281 5.04858 2.41858C5.04858 3.61435 4.07504 4.58789 2.87927 4.58789V4.57731ZM4.74171 18.2493H1.00626V6.21752H4.74171V18.2387V18.2493Z" fill="#272727"/>
</svg>
