<svg width="149" height="43" viewBox="0 0 149 43" fill="none" xmlns="http://www.w3.org/2000/svg">
<path fill-rule="evenodd" clip-rule="evenodd" d="M45.39 0H39.5V5.89H45.39V0ZM20.07 13.64V11.74C20.07 6.01998 16.17 1.72998 10.06 1.72998C3.95 1.72998 0 6.02998 0 11.74V32.48H5.85V22.91H9.85V17.41H5.85V11.43C5.85 9.34998 7.18 7.25998 10.06 7.25998C12.94 7.25998 14.22 9.33998 14.22 11.43V13.64H20.07ZM36 37.3599C38.35 37.5799 39.5 36.9099 39.5 34.6099V9.65991H45.39V35.2699C45.39 41.2499 41.76 43.3399 36 42.5399V37.3599ZM56.34 9.65991H50.49V32.4799H56.34V9.65991ZM50.49 0.0400391H56.34V5.89004H50.49V0.0400391ZM28.45 23.2599C28.45 25.3399 27.16 27.4699 24.28 27.4699C21.4 27.4699 20.07 25.3399 20.07 23.2599V17.4099H14.22V22.9499C14.22 28.7099 18.16 33.0099 24.28 33.0099C30.4 33.0099 34.29 28.7099 34.29 22.9499V9.65991H28.44V23.2599H28.45ZM93.53 12.1001V9.6601H99.09V32.4901H93.51V30.0501C91.74 31.9101 89.34 32.9701 86.51 32.9701C83.68 32.9701 81.09 31.7901 79.14 29.8301C77.4 31.8101 74.8 33.0101 71.57 33.0101C65.45 33.0101 61.51 28.7101 61.51 22.9501V3.8501H67.36V9.6601H73.36V15.1501H67.36V23.2701C67.36 25.3501 68.69 27.4801 71.57 27.4801C74.45 27.4801 75.74 25.3501 75.74 23.2701V22.4601C75.7 22.0201 75.67 21.5601 75.67 21.1001C75.67 14.3201 80.59 9.1801 86.53 9.1801C89.32 9.1801 91.76 10.2401 93.53 12.1001ZM81.59 21.8101C81.89 25.1101 84.38 27.5601 87.41 27.5601C90.64 27.5601 93.26 24.7801 93.26 21.1401C93.26 17.5001 90.63 14.5801 87.41 14.5801C84.19 14.5801 81.58 17.3901 81.56 21.0901H81.59V21.8101Z" fill="white"/>
<path fill-rule="evenodd" clip-rule="evenodd" d="M120.87 0H115.02V5.89H120.87V0ZM115.02 9.65991H120.87V32.4799H115.02V9.65991ZM103.9 26.23H110.19V32.48H103.9V26.23ZM125.03 21.0901C125.03 14.2601 130.17 9.08008 136.51 9.08008C142.84 9.08008 148.03 14.2701 148.03 21.0901C148.03 27.9101 142.85 33.0101 136.51 33.0101C130.17 33.0101 125.03 27.9201 125.03 21.0901ZM130.88 21.1401C130.88 24.9901 133.41 27.6501 136.51 27.6501C139.61 27.6501 142.14 25.0801 142.14 21.1401C142.14 17.2001 139.61 14.4501 136.51 14.4501C133.41 14.4501 130.88 17.2901 130.88 21.1401Z" fill="#43A047"/>
</svg>
