<svg width="149" height="44" viewBox="0 0 149 44" fill="none" xmlns="http://www.w3.org/2000/svg">
<path fill-rule="evenodd" clip-rule="evenodd" d="M45.39 0.5H39.5V6.39H45.39V0.5ZM20.07 14.14V12.24C20.07 6.51998 16.17 2.22998 10.06 2.22998C3.95 2.22998 0 6.52998 0 12.24V32.98H5.85V23.41H9.85V17.91H5.85V11.93C5.85 9.84998 7.18 7.75998 10.06 7.75998C12.94 7.75998 14.22 9.83998 14.22 11.93V14.14H20.07ZM36 37.8599C38.35 38.0799 39.5 37.4099 39.5 35.1099V10.1599H45.39V35.7699C45.39 41.7499 41.76 43.8399 36 43.0399V37.8599ZM56.34 10.1599H50.49V32.9799H56.34V10.1599ZM50.49 0.540039H56.34V6.39004H50.49V0.540039ZM28.45 23.7599C28.45 25.8399 27.16 27.9699 24.28 27.9699C21.4 27.9699 20.07 25.8399 20.07 23.7599V17.9099H14.22V23.4499C14.22 29.2099 18.16 33.5099 24.28 33.5099C30.4 33.5099 34.29 29.2099 34.29 23.4499V10.1599H28.44V23.7599H28.45ZM93.53 12.6001V10.1601H99.09V32.9901H93.51V30.5501C91.74 32.4101 89.34 33.4701 86.51 33.4701C83.68 33.4701 81.09 32.2901 79.14 30.3301C77.4 32.3101 74.8 33.5101 71.57 33.5101C65.45 33.5101 61.51 29.2101 61.51 23.4501V4.3501H67.36V10.1601H73.36V15.6501H67.36V23.7701C67.36 25.8501 68.69 27.9801 71.57 27.9801C74.45 27.9801 75.74 25.8501 75.74 23.7701V22.9601C75.7 22.5201 75.67 22.0601 75.67 21.6001C75.67 14.8201 80.59 9.6801 86.53 9.6801C89.32 9.6801 91.76 10.7401 93.53 12.6001ZM81.59 22.3101C81.89 25.6101 84.38 28.0601 87.41 28.0601C90.64 28.0601 93.26 25.2801 93.26 21.6401C93.26 18.0001 90.63 15.0801 87.41 15.0801C84.19 15.0801 81.58 17.8901 81.56 21.5901H81.59V22.3101Z" fill="#272727"/>
<path fill-rule="evenodd" clip-rule="evenodd" d="M120.87 0.5H115.02V6.39H120.87V0.5ZM115.02 10.1599H120.87V32.9799H115.02V10.1599ZM103.9 26.73H110.19V32.98H103.9V26.73ZM125.03 21.5901C125.03 14.7601 130.17 9.58008 136.51 9.58008C142.84 9.58008 148.03 14.7701 148.03 21.5901C148.03 28.4101 142.85 33.5101 136.51 33.5101C130.17 33.5101 125.03 28.4201 125.03 21.5901ZM130.88 21.6401C130.88 25.4901 133.41 28.1501 136.51 28.1501C139.61 28.1501 142.14 25.5801 142.14 21.6401C142.14 17.7001 139.61 14.9501 136.51 14.9501C133.41 14.9501 130.88 17.7901 130.88 21.6401Z" fill="#43A047"/>
</svg>
