<?xml version="1.0" encoding="UTF-8"?>
<svg width="700pt" height="700pt" version="1.1" viewBox="0 0 700 700" xmlns="http://www.w3.org/2000/svg" xmlns:xlink="http://www.w3.org/1999/xlink">
 <defs>
  <symbol id="s" overflow="visible">
   <path d="m18.766-1.125c-0.96875 0.5-1.9805 0.875-3.0312 1.125-1.043 0.25781-2.1367 0.39062-3.2812 0.39062-3.3984 0-6.0898-0.94531-8.0781-2.8438-1.9922-1.9062-2.9844-4.4844-2.9844-7.7344 0-3.2578 0.99219-5.8359 2.9844-7.7344 1.9883-1.9062 4.6797-2.8594 8.0781-2.8594 1.1445 0 2.2383 0.13281 3.2812 0.39062 1.0508 0.25 2.0625 0.625 3.0312 1.125v4.2188c-0.98047-0.65625-1.9453-1.1406-2.8906-1.4531-0.94922-0.3125-1.9492-0.46875-3-0.46875-1.875 0-3.3516 0.60547-4.4219 1.8125-1.0742 1.1992-1.6094 2.8555-1.6094 4.9688 0 2.1055 0.53516 3.7617 1.6094 4.9688 1.0703 1.1992 2.5469 1.7969 4.4219 1.7969 1.0508 0 2.0508-0.14844 3-0.45312 0.94531-0.3125 1.9102-0.80078 2.8906-1.4688z"/>
  </symbol>
  <symbol id="d" overflow="visible">
   <path d="m13.734-11.141c-0.4375-0.19531-0.87109-0.34375-1.2969-0.4375-0.41797-0.10156-0.83984-0.15625-1.2656-0.15625-1.2617 0-2.2305 0.40625-2.9062 1.2188-0.67969 0.80469-1.0156 1.9531-1.0156 3.4531v7.0625h-4.8906v-15.312h4.8906v2.5156c0.625-1 1.3438-1.7266 2.1562-2.1875 0.82031-0.46875 1.8008-0.70312 2.9375-0.70312 0.16406 0 0.34375 0.011719 0.53125 0.03125 0.19531 0.011719 0.47656 0.039062 0.84375 0.078125z"/>
  </symbol>
  <symbol id="a" overflow="visible">
   <path d="m17.641-7.7031v1.4062h-11.453c0.125 1.1484 0.53906 2.0078 1.25 2.5781 0.70703 0.57422 1.7031 0.85938 2.9844 0.85938 1.0312 0 2.082-0.14844 3.1562-0.45312 1.082-0.3125 2.1914-0.77344 3.3281-1.3906v3.7656c-1.1562 0.4375-2.3125 0.76562-3.4688 0.98438-1.1562 0.22656-2.3125 0.34375-3.4688 0.34375-2.7734 0-4.9297-0.70312-6.4688-2.1094-1.5312-1.4062-2.2969-3.3789-2.2969-5.9219 0-2.5 0.75391-4.4609 2.2656-5.8906 1.5078-1.4375 3.582-2.1562 6.2188-2.1562 2.4062 0 4.332 0.73047 5.7812 2.1875 1.4453 1.4492 2.1719 3.3828 2.1719 5.7969zm-5.0312-1.625c0-0.92578-0.27344-1.6719-0.8125-2.2344-0.54297-0.57031-1.25-0.85938-2.125-0.85938-0.94922 0-1.7188 0.26562-2.3125 0.79688s-0.96484 1.2969-1.1094 2.2969z"/>
  </symbol>
  <symbol id="j" overflow="visible">
   <path d="m9.2188-6.8906c-1.0234 0-1.793 0.17188-2.3125 0.51562-0.51172 0.34375-0.76562 0.85547-0.76562 1.5312 0 0.625 0.20703 1.1172 0.625 1.4688 0.41406 0.34375 0.98828 0.51562 1.7188 0.51562 0.92578 0 1.7031-0.32812 2.3281-0.98438 0.63281-0.66406 0.95312-1.4922 0.95312-2.4844v-0.5625zm7.4688-1.8438v8.7344h-4.9219v-2.2656c-0.65625 0.92969-1.3984 1.6055-2.2188 2.0312-0.82422 0.41406-1.8242 0.625-3 0.625-1.5859 0-2.8711-0.45703-3.8594-1.375-0.99219-0.92578-1.4844-2.1289-1.4844-3.6094 0-1.7891 0.61328-3.1016 1.8438-3.9375 1.2383-0.84375 3.1797-1.2656 5.8281-1.2656h2.8906v-0.39062c0-0.76953-0.30859-1.332-0.92188-1.6875-0.61719-0.36328-1.5703-0.54688-2.8594-0.54688-1.0547 0-2.0312 0.10547-2.9375 0.3125-0.89844 0.21094-1.7305 0.52344-2.5 0.9375v-3.7344c1.0391-0.25 2.0859-0.44141 3.1406-0.57812 1.0625-0.13281 2.125-0.20312 3.1875-0.20312 2.7578 0 4.75 0.54688 5.9688 1.6406 1.2266 1.0859 1.8438 2.8555 1.8438 5.3125z"/>
  </symbol>
  <symbol id="c" overflow="visible">
   <path d="m7.7031-19.656v4.3438h5.0469v3.5h-5.0469v6.5c0 0.71094 0.14062 1.1875 0.42188 1.4375s0.83594 0.375 1.6719 0.375h2.5156v3.5h-4.1875c-1.9375 0-3.3125-0.39844-4.125-1.2031-0.80469-0.8125-1.2031-2.1797-1.2031-4.1094v-6.5h-2.4219v-3.5h2.4219v-4.3438z"/>
  </symbol>
  <symbol id="i" overflow="visible">
   <path d="m12.766-13.078v-8.2031h4.9219v21.281h-4.9219v-2.2188c-0.66797 0.90625-1.4062 1.5703-2.2188 1.9844s-1.7578 0.625-2.8281 0.625c-1.8867 0-3.4336-0.75-4.6406-2.25-1.2109-1.5-1.8125-3.4258-1.8125-5.7812 0-2.3633 0.60156-4.2969 1.8125-5.7969 1.207-1.5 2.7539-2.25 4.6406-2.25 1.0625 0 2 0.21484 2.8125 0.64062 0.82031 0.42969 1.5664 1.0859 2.2344 1.9688zm-3.2188 9.9219c1.0391 0 1.8359-0.37891 2.3906-1.1406 0.55078-0.76953 0.82812-1.8828 0.82812-3.3438 0-1.457-0.27734-2.5664-0.82812-3.3281-0.55469-0.76953-1.3516-1.1562-2.3906-1.1562-1.043 0-1.8398 0.38672-2.3906 1.1562-0.55469 0.76172-0.82812 1.8711-0.82812 3.3281 0 1.4609 0.27344 2.5742 0.82812 3.3438 0.55078 0.76172 1.3477 1.1406 2.3906 1.1406z"/>
  </symbol>
  <symbol id="h" overflow="visible">
   <path d="m10.5-3.1562c1.0508 0 1.8516-0.37891 2.4062-1.1406 0.55078-0.76953 0.82812-1.8828 0.82812-3.3438 0-1.457-0.27734-2.5664-0.82812-3.3281-0.55469-0.76953-1.3555-1.1562-2.4062-1.1562-1.0547 0-1.8594 0.38672-2.4219 1.1562-0.55469 0.77344-0.82812 1.8828-0.82812 3.3281 0 1.4492 0.27344 2.5586 0.82812 3.3281 0.5625 0.77344 1.3672 1.1562 2.4219 1.1562zm-3.25-9.9219c0.67578-0.88281 1.4219-1.5391 2.2344-1.9688 0.82031-0.42578 1.7656-0.64062 2.8281-0.64062 1.8945 0 3.4453 0.75 4.6562 2.25 1.207 1.5 1.8125 3.4336 1.8125 5.7969 0 2.3555-0.60547 4.2812-1.8125 5.7812-1.2109 1.5-2.7617 2.25-4.6562 2.25-1.0625 0-2.0078-0.21094-2.8281-0.625-0.8125-0.42578-1.5586-1.0859-2.2344-1.9844v2.2188h-4.8906v-21.281h4.8906z"/>
  </symbol>
  <symbol id="g" overflow="visible">
   <path d="m0.34375-15.312h4.8906l4.125 10.391 3.5-10.391h4.8906l-6.4375 16.766c-0.64844 1.6953-1.4023 2.8828-2.2656 3.5625-0.86719 0.6875-2 1.0312-3.4062 1.0312h-2.8438v-3.2188h1.5312c0.83203 0 1.4375-0.13672 1.8125-0.40625 0.38281-0.26172 0.67969-0.73047 0.89062-1.4062l0.14062-0.42188z"/>
  </symbol>
  <symbol id="f" overflow="visible">
   <path d="m14.953-3.7188h-8.2188l-1.3125 3.7188h-5.2812l7.5625-20.406h6.2656l7.5625 20.406h-5.2812zm-6.9062-3.7812h5.5781l-2.7812-8.125z"/>
  </symbol>
  <symbol id="b" overflow="visible">
   <path d="m9.6406-12.188c-1.0859 0-1.9141 0.39062-2.4844 1.1719-0.57422 0.78125-0.85938 1.9062-0.85938 3.375s0.28516 2.5938 0.85938 3.375c0.57031 0.77344 1.3984 1.1562 2.4844 1.1562 1.0625 0 1.875-0.38281 2.4375-1.1562 0.57031-0.78125 0.85938-1.9062 0.85938-3.375s-0.28906-2.5938-0.85938-3.375c-0.5625-0.78125-1.375-1.1719-2.4375-1.1719zm0-3.5c2.6328 0 4.6914 0.71484 6.1719 2.1406 1.4766 1.418 2.2188 3.3867 2.2188 5.9062 0 2.5117-0.74219 4.4805-2.2188 5.9062-1.4805 1.418-3.5391 2.125-6.1719 2.125-2.6484 0-4.7148-0.70703-6.2031-2.125-1.4922-1.4258-2.2344-3.3945-2.2344-5.9062 0-2.5195 0.74219-4.4883 2.2344-5.9062 1.4883-1.4258 3.5547-2.1406 6.2031-2.1406z"/>
  </symbol>
  <symbol id="e" overflow="visible">
   <path d="m16.547-12.766c0.61328-0.94531 1.3477-1.6719 2.2031-2.1719 0.85156-0.5 1.7891-0.75 2.8125-0.75 1.7578 0 3.0977 0.54688 4.0156 1.6406 0.92578 1.0859 1.3906 2.6562 1.3906 4.7188v9.3281h-4.9219v-7.9844-0.35938c0.007813-0.13281 0.015625-0.32031 0.015625-0.5625 0-1.082-0.16406-1.8633-0.48438-2.3438-0.3125-0.48828-0.82422-0.73438-1.5312-0.73438-0.92969 0-1.6484 0.38672-2.1562 1.1562-0.51172 0.76172-0.77344 1.8672-0.78125 3.3125v7.5156h-4.9219v-7.9844c0-1.6953-0.14844-2.7852-0.4375-3.2656-0.29297-0.48828-0.8125-0.73438-1.5625-0.73438-0.9375 0-1.6641 0.38672-2.1719 1.1562-0.51172 0.76172-0.76562 1.8594-0.76562 3.2969v7.5312h-4.9219v-15.312h4.9219v2.2344c0.60156-0.86328 1.2891-1.5156 2.0625-1.9531 0.78125-0.4375 1.6406-0.65625 2.5781-0.65625 1.0625 0 2 0.25781 2.8125 0.76562 0.8125 0.51172 1.4258 1.2305 1.8438 2.1562z"/>
  </symbol>
  <symbol id="r" overflow="visible">
   <path d="m12.422-21.281v3.2188h-2.7031c-0.6875 0-1.1719 0.125-1.4531 0.375-0.27344 0.25-0.40625 0.6875-0.40625 1.3125v1.0625h4.1875v3.5h-4.1875v11.812h-4.8906v-11.812h-2.4375v-3.5h2.4375v-1.0625c0-1.6641 0.46094-2.8984 1.3906-3.7031 0.92578-0.80078 2.3672-1.2031 4.3281-1.2031z"/>
  </symbol>
  <symbol id="q" overflow="visible">
   <path d="m17.75-9.3281v9.3281h-4.9219v-7.1094c0-1.3438-0.03125-2.2656-0.09375-2.7656s-0.16797-0.86719-0.3125-1.1094c-0.1875-0.3125-0.44922-0.55469-0.78125-0.73438-0.32422-0.17578-0.69531-0.26562-1.1094-0.26562-1.0234 0-1.8242 0.39844-2.4062 1.1875-0.58594 0.78125-0.875 1.8711-0.875 3.2656v7.5312h-4.8906v-21.281h4.8906v8.2031c0.73828-0.88281 1.5195-1.5391 2.3438-1.9688 0.83203-0.42578 1.75-0.64062 2.75-0.64062 1.7695 0 3.1133 0.54688 4.0312 1.6406 0.91406 1.0859 1.375 2.6562 1.375 4.7188z"/>
  </symbol>
  <symbol id="p" overflow="visible">
   <path d="m2.5781-20.406h5.875l7.4219 14v-14h4.9844v20.406h-5.875l-7.4219-14v14h-4.9844z"/>
  </symbol>
  <symbol id="o" overflow="visible">
   <path d="m2.1875-5.9688v-9.3438h4.9219v1.5312c0 0.83594-0.007813 1.875-0.015625 3.125-0.011719 1.25-0.015625 2.0859-0.015625 2.5 0 1.2422 0.03125 2.1328 0.09375 2.6719 0.070313 0.54297 0.17969 0.93359 0.32812 1.1719 0.20703 0.32422 0.47266 0.57422 0.79688 0.75 0.32031 0.16797 0.69141 0.25 1.1094 0.25 1.0195 0 1.8203-0.39062 2.4062-1.1719 0.58203-0.78125 0.875-1.8672 0.875-3.2656v-7.5625h4.8906v15.312h-4.8906v-2.2188c-0.74219 0.89844-1.5234 1.5586-2.3438 1.9844-0.82422 0.41406-1.7344 0.625-2.7344 0.625-1.7617 0-3.1055-0.53906-4.0312-1.625-0.92969-1.082-1.3906-2.6602-1.3906-4.7344z"/>
  </symbol>
  <symbol id="n" overflow="visible">
   <path d="m17.75-9.3281v9.3281h-4.9219v-7.1406c0-1.3203-0.03125-2.2344-0.09375-2.7344s-0.16797-0.86719-0.3125-1.1094c-0.1875-0.3125-0.44922-0.55469-0.78125-0.73438-0.32422-0.17578-0.69531-0.26562-1.1094-0.26562-1.0234 0-1.8242 0.39844-2.4062 1.1875-0.58594 0.78125-0.875 1.8711-0.875 3.2656v7.5312h-4.8906v-15.312h4.8906v2.2344c0.73828-0.88281 1.5195-1.5391 2.3438-1.9688 0.83203-0.42578 1.75-0.64062 2.75-0.64062 1.7695 0 3.1133 0.54688 4.0312 1.6406 0.91406 1.0859 1.375 2.6562 1.375 4.7188z"/>
  </symbol>
  <symbol id="m" overflow="visible">
   <path d="m2.5781-20.406h8.7344c2.5938 0 4.582 0.57812 5.9688 1.7344 1.3945 1.1484 2.0938 2.7891 2.0938 4.9219 0 2.1367-0.69922 3.7812-2.0938 4.9375-1.3867 1.1562-3.375 1.7344-5.9688 1.7344h-3.4844v7.0781h-5.25zm5.25 3.8125v5.7031h2.9219c1.0195 0 1.8047-0.25 2.3594-0.75 0.5625-0.5 0.84375-1.2031 0.84375-2.1094 0-0.91406-0.28125-1.6172-0.84375-2.1094-0.55469-0.48828-1.3398-0.73438-2.3594-0.73438z"/>
  </symbol>
  <symbol id="l" overflow="visible">
   <path d="m2.3594-15.312h4.8906v15.031c0 2.0508-0.49609 3.6172-1.4844 4.7031-0.98047 1.082-2.4062 1.625-4.2812 1.625h-2.4219v-3.2188h0.85938c0.92578 0 1.5625-0.21094 1.9062-0.625 0.35156-0.41797 0.53125-1.2461 0.53125-2.4844zm0-5.9688h4.8906v4h-4.8906z"/>
  </symbol>
  <symbol id="k" overflow="visible">
   <path d="m14.719-14.828v3.9844c-0.65625-0.45703-1.3242-0.79688-2-1.0156-0.66797-0.21875-1.3594-0.32812-2.0781-0.32812-1.3672 0-2.4336 0.40234-3.2031 1.2031-0.76172 0.79297-1.1406 1.9062-1.1406 3.3438 0 1.4297 0.37891 2.543 1.1406 3.3438 0.76953 0.79297 1.8359 1.1875 3.2031 1.1875 0.75781 0 1.4844-0.10938 2.1719-0.32812 0.6875-0.22656 1.3203-0.56641 1.9062-1.0156v4c-0.76172 0.28125-1.5391 0.48828-2.3281 0.625-0.78125 0.14453-1.5742 0.21875-2.375 0.21875-2.7617 0-4.9219-0.70703-6.4844-2.125-1.5547-1.4141-2.3281-3.3828-2.3281-5.9062 0-2.5312 0.77344-4.5039 2.3281-5.9219 1.5625-1.4141 3.7227-2.125 6.4844-2.125 0.80078 0 1.5938 0.074219 2.375 0.21875 0.78125 0.13672 1.5547 0.35156 2.3281 0.64062z"/>
  </symbol>
 </defs>
 <g>
  <path d="m447.14 513.8-85.344-59.117v-69.984l94.508-68.672 70.676 14.578 30.766 93.77c-27.488 39.375-65.785 70.652-110.61 89.426zm-306.38-89.418 30.766-93.777 70.676-14.578 94.516 68.672v73.051l-77.605 59.109c-48.137-18.32-89.293-50.859-118.35-92.477zm303.37-380.88 14.551 75.039-50.172 49.113h-117.43l-39.551-51.844 17.961-77.859c25.109-8.3164 51.906-12.887 79.762-12.887 33.535 0 65.539 6.5859 94.875 18.438zm102.48 75.801-63.766-7.8555-10.57-54.531c28.609 15.898 53.844 37.137 74.336 62.387zm-386.68-9.4297c0.96094-1.0586 1.9219-2.1211 2.8984-3.1758 1.7578-1.8867 3.5352-3.7617 5.3516-5.5977 1.3633-1.3867 2.75-2.7422 4.1445-4.0977 1.5469-1.4961 3.0938-2.9922 4.6719-4.4531 1.8047-1.6641 3.6523-3.2852 5.5078-4.8984 1.2891-1.1211 2.5586-2.2578 3.8711-3.3516 2.2891-1.9141 4.6367-3.7695 6.9961-5.6016 0.98438-0.76562 1.9453-1.5625 2.9414-2.3125 2.8672-2.168 5.7852-4.2461 8.7344-6.2969 0.57812-0.39844 1.1367-0.82422 1.7227-1.2188 3.5664-2.4336 7.1953-4.7656 10.883-7.0117 1.0352-0.62891 2.1055-1.1953 3.1406-1.8047 2.5664-1.5156 5.125-3.0195 7.7422-4.4414 2.2969-1.2422 4.6445-2.4062 6.9961-3.582 1.3789-0.69531 2.7461-1.4219 4.1445-2.0977 0.48438-0.23438 0.98438-0.4375 1.4805-0.67188l-13.316 57.691-70.754 6.1992c0.94531-1.0859 1.875-2.1992 2.8438-3.2773zm-38.59 281.73c-0.70312-1.4102-1.3945-2.832-2.0664-4.2539-1.1523-2.457-2.2812-4.9297-3.3594-7.4219-0.69922-1.6211-1.3711-3.2578-2.0391-4.8906-0.96875-2.3867-1.9375-4.7773-2.8398-7.2031-0.69531-1.8555-1.332-3.7266-1.9727-5.6016-0.78516-2.2617-1.5898-4.5273-2.3164-6.8203-0.75391-2.4062-1.4219-4.8477-2.1055-7.2695-0.51172-1.8242-1.0781-3.6211-1.5469-5.4492-1.0938-4.2305-2.0664-8.5-2.9336-12.789-0.30859-1.5117-0.54297-3.0508-0.82031-4.5781-0.54297-2.9453-1.0781-5.8945-1.5117-8.8633-0.25781-1.7266-0.44141-3.4766-0.66797-5.2148-0.35156-2.7891-0.6875-5.582-0.94531-8.3906-0.17578-1.8398-0.29297-3.6875-0.42578-5.5312-0.19141-2.7344-0.35937-5.4609-0.46094-8.2031-0.03125-0.83203-0.042969-1.668-0.066406-2.5039l51.871 37.918-23.477 71.582c-0.78906-1.5039-1.5664-3-2.3164-4.5156zm114.09-99.777-70.637 14.566-68.629-50.164c3.8438-42.586 18.23-82.164 40.531-116.12l95.457-8.3594 38.773 50.816zm113.83 70.969-89.414-64.961 34.145-105.11h110.53l34.152 105.11zm66.832 161.65c-4.1445 1.125-8.3164 2.1641-12.52 3.0742-0.66797 0.15234-1.3359 0.32422-2.0117 0.46875-5.043 1.0508-10.117 1.957-15.215 2.6992-0.63281 0.09375-1.2773 0.16016-1.9141 0.25-4.3945 0.60156-8.8008 1.0938-13.223 1.4805-1.168 0.10156-2.3398 0.18359-3.5078 0.26562-4.0977 0.29297-8.1914 0.48438-12.297 0.58594-1.0781 0.027344-2.1484 0.066406-3.2266 0.085937-10.312 0.11719-20.645-0.37891-30.898-1.5078-0.80469-0.082031-1.5898-0.20703-2.3828-0.30078-4.2227-0.5-8.4258-1.1172-12.613-1.8281-1.2539-0.21875-2.5-0.44531-3.7344-0.66797-4.0547-0.76172-8.082-1.6133-12.098-2.5664-0.66016-0.16016-1.3203-0.30078-1.9805-0.46094l62.996-47.992 66.309 45.938c-0.5625 0.15625-1.1211 0.32422-1.6836 0.47656zm117.62-218.05-70.625-14.566-35.129-108.11 48.785-47.762 89.492 11.035c19.801 32.371 32.523 69.504 36.105 109.24zm69.008-9.0664c-0.125 1.8438-0.25 3.6914-0.41797 5.5312-0.26172 2.8164-0.60156 5.6172-0.95312 8.418-0.21875 1.7188-0.41016 3.4609-0.66016 5.1797-0.44531 2.9844-0.98047 5.9453-1.5234 8.9023-0.27344 1.5117-0.50781 3.043-0.80859 4.5469-0.87109 4.2891-1.8477 8.543-2.9336 12.781-0.47656 1.8555-1.0547 3.6758-1.5703 5.5156-0.67969 2.4062-1.3398 4.8125-2.082 7.1953-0.73828 2.3242-1.5469 4.6055-2.3398 6.8945-0.63672 1.8477-1.2617 3.6953-1.9414 5.5195-0.91016 2.4492-1.8867 4.8711-2.875 7.2773-0.65234 1.6055-1.3125 3.2031-1.9961 4.7891-1.0977 2.5352-2.2344 5.043-3.4102 7.5312-0.65234 1.3789-1.3203 2.75-2 4.1133-0.75781 1.5469-1.5547 3.0586-2.3398 4.582l-23.492-71.574 51.871-37.91c-0.019532 0.83594-0.027344 1.6719-0.058594 2.5039-0.10938 2.7422-0.27734 5.4688-0.46875 8.2031zm-17.82 131.48c1.8633-2.918 3.668-5.8672 5.4258-8.8594 1.2617-2.1562 2.5312-4.3047 3.7266-6.4844 2.5234-4.582 4.9297-9.2305 7.1953-13.961 0.92187-1.9219 1.7539-3.8594 2.625-5.8008 1.6484-3.6328 3.2109-7.3047 4.6992-11.023 0.75781-1.9141 1.543-3.8203 2.2617-5.7422 1.957-5.207 3.7695-10.48 5.4102-15.828 0.45703-1.4961 0.85156-3.0117 1.2852-4.5078 1.2812-4.4453 2.457-8.9336 3.5195-13.473 0.38672-1.6289 0.78516-3.2578 1.1367-4.8984 1.2461-5.75 2.3398-11.559 3.2188-17.426 0.14062-0.95312 0.23437-1.9141 0.36719-2.8672 0.71094-5.125 1.2695-10.297 1.707-15.504 0.13281-1.6211 0.25781-3.2344 0.36719-4.8555 0.39062-6.0703 0.66797-12.172 0.66797-18.34 0-3.4336-0.11719-7.1289-0.27734-10.965-0.089844-2.1914-0.19141-4.3711-0.33203-6.543 0-0.10156-0.007813-0.19531-0.007813-0.30078-0.011719-0.019531-0.019531-0.035156-0.019531-0.058594-3.0742-48.43-18.547-93.512-43.277-132.16-0.125-0.22656-0.17578-0.48828-0.31641-0.70312-0.52734-0.82031-1.1367-1.582-1.6719-2.3984-2.8086-4.2656-5.7031-8.4609-8.7344-12.562-1.5664-2.1172-3.1953-4.1641-4.8086-6.2266-2.1367-2.7344-4.3125-5.4336-6.5508-8.082-1.9492-2.3164-3.9141-4.6055-5.9336-6.8555-1.7656-1.9492-3.5859-3.8359-5.4023-5.7422-3.8359-4.0195-7.7734-7.9336-11.832-11.711-1.4062-1.3008-2.8086-2.6055-4.2383-3.875-8.4922-7.5977-17.43-14.652-26.789-21.148-2.1133-1.4727-4.2461-2.8984-6.3945-4.3125-2.5-1.6367-4.9883-3.2852-7.5391-4.8398-4.3711-2.6641-8.8359-5.207-13.355-7.6406-1.9062-1.0195-3.8359-1.9805-5.7578-2.957-4.0234-2.0312-8.0859-3.9805-12.203-5.8242-0.99609-0.44531-1.9414-0.97266-2.9453-1.4062-0.13281-0.058594-0.27344-0.058594-0.41797-0.11719-33.891-14.652-71.227-22.816-110.45-22.816-33.039 0-64.742 5.8008-94.18 16.383-0.14844 0.046876-0.30859 0.039063-0.45703 0.097657-0.29297 0.10938-0.57031 0.24219-0.86328 0.35156-5.4648 1.9883-10.824 4.1953-16.121 6.5195-2.3008 0.99609-4.5742 2.0312-6.8281 3.0938-3.4453 1.6133-6.832 3.3164-10.199 5.0742-4.3633 2.2617-8.6406 4.6523-12.863 7.1367-1.6797 0.98438-3.3516 1.9727-5.0078 3-10.629 6.5547-20.777 13.809-30.422 21.723-0.52734 0.43359-1.0469 0.87891-1.5703 1.3125-5.8789 4.9062-11.551 10.047-17.027 15.438-0.82812 0.8125-1.6641 1.6055-2.4805 2.4336-2.7109 2.7305-5.3828 5.5156-7.9844 8.375-2.0312 2.2148-3.9766 4.4961-5.9336 6.7773-2.918 3.4102-5.7656 6.8789-8.5352 10.449-2.2227 2.8477-4.3789 5.75-6.4922 8.6836-1.0195 1.4297-2.1406 2.7578-3.1445 4.2109-0.14063 0.21094-0.20703 0.46875-0.33984 0.6875-27.602 40.262-44.902 88.078-48.18 139.66 0 0.015625-0.007812 0.035156-0.007812 0.050781-0.007813 0.058594 0 0.10938-0.007813 0.16797-0.36719 5.832-0.60938 11.699-0.60938 17.625 0 6.168 0.26562 12.27 0.66797 18.34 0.10156 1.6289 0.23438 3.25 0.36719 4.8711 0.42578 5.1914 0.98828 10.348 1.6992 15.453 0.13281 0.97266 0.22266 1.9492 0.375 2.9102 0.875 5.8672 1.9727 11.652 3.207 17.387 0.35938 1.6719 0.76172 3.3242 1.1562 4.9883 1.0508 4.4883 2.2148 8.9453 3.4922 13.348 0.43359 1.5312 0.83594 3.0781 1.3047 4.6055 1.6367 5.332 3.4531 10.582 5.3906 15.773 0.72656 1.9453 1.5195 3.8672 2.2891 5.8008 1.4883 3.7031 3.043 7.3633 4.6836 10.988 0.86719 1.9336 1.7031 3.8789 2.6211 5.8008 2.2734 4.7422 4.6914 9.4062 7.2148 13.992 1.1875 2.1484 2.4336 4.2539 3.668 6.3711 1.8047 3.0742 3.6641 6.1094 5.5742 9.1016 0.9375 1.4688 1.7578 2.9922 2.7188 4.4453 0.14844 0.21875 0.35938 0.38672 0.51953 0.60156 33.332 49.867 82.285 88.406 139.8 108.66 0.11719 0.042969 0.21094 0.12891 0.32812 0.16797 1.5195 0.53516 3.0508 0.99609 4.5703 1.4961 2.0156 0.66797 4.0117 1.3555 6.0508 1.9727 2.1562 0.66016 4.332 1.2461 6.5039 1.8555 3.3594 0.9375 6.7461 1.8164 10.156 2.6328 2.4375 0.58594 4.8789 1.1797 7.3281 1.6992 1.8906 0.39062 3.8047 0.73438 5.7109 1.0938 2.3711 0.44141 4.7461 0.88672 7.1367 1.2773 1.8633 0.30078 3.7422 0.5625 5.625 0.82813 2.5156 0.35937 5.0469 0.67578 7.582 0.96875 1.7617 0.20312 3.5273 0.39453 5.2969 0.5625 2.8594 0.26562 5.7266 0.46875 8.5938 0.65234 1.4805 0.089844 2.9492 0.20703 4.4375 0.27344 4.3867 0.21094 8.7773 0.33594 13.188 0.33594 4.582 0 9.1445-0.125 13.691-0.34375 1.5469-0.074218 3.0703-0.21875 4.6055-0.31641 2.9844-0.19141 5.9609-0.39453 8.9258-0.6875 1.875-0.17578 3.7305-0.42578 5.5938-0.64062 2.582-0.30078 5.1641-0.61328 7.7383-0.98828 2.0586-0.30078 4.0977-0.65234 6.1367-1.0039 2.3242-0.39063 4.6445-0.79297 6.9609-1.2461 2.1992-0.42578 4.3906-0.90234 6.5703-1.3867 2.1055-0.45703 4.1953-0.93359 6.2852-1.4531 2.3242-0.57031 4.6289-1.1719 6.9297-1.7969 1.9141-0.52734 3.8281-1.0703 5.7344-1.6289 2.3789-0.71094 4.7461-1.4375 7.1016-2.207 1.8398-0.60156 3.6719-1.2305 5.5-1.8633 2.3164-0.8125 4.625-1.6328 6.9062-2.5 0.71875-0.26953 1.4453-0.5 2.1641-0.77734 0.16797-0.066406 0.29297-0.18359 0.46094-0.25781 53.691-20.98 99.359-58.066 130.98-105.36 0.16797-0.22656 0.38281-0.39453 0.53516-0.62891 1.0039-1.5039 1.8477-3.082 2.8164-4.6055z" fill-rule="evenodd"/>
  <use x="70" y="644" xlink:href="#s"/>
  <use x="90.550781" y="644" xlink:href="#d"/>
  <use x="104.359375" y="644" xlink:href="#a"/>
  <use x="123.347656" y="644" xlink:href="#j"/>
  <use x="142.242188" y="644" xlink:href="#c"/>
  <use x="155.628906" y="644" xlink:href="#a"/>
  <use x="174.617188" y="644" xlink:href="#i"/>
  <use x="204.410156" y="644" xlink:href="#h"/>
  <use x="224.453125" y="644" xlink:href="#g"/>
  <use x="252.453125" y="644" xlink:href="#f"/>
  <use x="274.121094" y="644" xlink:href="#b"/>
  <use x="293.359375" y="644" xlink:href="#e"/>
  <use x="322.53125" y="644" xlink:href="#f"/>
  <use x="344.203125" y="644" xlink:href="#e"/>
  <use x="70" y="672" xlink:href="#r"/>
  <use x="82.183594" y="672" xlink:href="#d"/>
  <use x="95.992188" y="672" xlink:href="#b"/>
  <use x="115.226562" y="672" xlink:href="#e"/>
  <use x="154.152344" y="672" xlink:href="#c"/>
  <use x="167.535156" y="672" xlink:href="#q"/>
  <use x="187.46875" y="672" xlink:href="#a"/>
  <use x="216.207031" y="672" xlink:href="#p"/>
  <use x="239.640625" y="672" xlink:href="#b"/>
  <use x="258.878906" y="672" xlink:href="#o"/>
  <use x="278.8125" y="672" xlink:href="#n"/>
  <use x="308.492188" y="672" xlink:href="#m"/>
  <use x="329.015625" y="672" xlink:href="#d"/>
  <use x="342.820312" y="672" xlink:href="#b"/>
  <use x="362.058594" y="672" xlink:href="#l"/>
  <use x="371.65625" y="672" xlink:href="#a"/>
  <use x="390.648438" y="672" xlink:href="#k"/>
  <use x="407.242188" y="672" xlink:href="#c"/>
 </g>
</svg>
