<?xml version="1.0" encoding="UTF-8"?>
<svg width="700pt" height="700pt" version="1.1" viewBox="0 0 700 700" xmlns="http://www.w3.org/2000/svg" xmlns:xlink="http://www.w3.org/1999/xlink">
 <defs>
  <symbol id="f" overflow="visible">
   <path d="m39.078-2.3281c-2.0117 1.043-4.1094 1.8281-6.2969 2.3594s-4.4648 0.79688-6.8281 0.79688c-7.0859 0-12.699-1.9766-16.844-5.9375-4.1367-3.957-6.2031-9.3281-6.2031-16.109 0-6.7891 2.0664-12.164 6.2031-16.125 4.1445-3.9688 9.7578-5.9531 16.844-5.9531 2.3633 0 4.6406 0.26562 6.8281 0.79688s4.2852 1.3242 6.2969 2.375v8.7969c-2.0312-1.3828-4.0391-2.3984-6.0156-3.0469-1.9688-0.64453-4.0469-0.96875-6.2344-0.96875-3.9062 0-6.9844 1.2578-9.2344 3.7656-2.2422 2.5-3.3594 5.9531-3.3594 10.359 0 4.3867 1.1172 7.8359 3.3594 10.344 2.25 2.5 5.3281 3.75 9.2344 3.75 2.1875 0 4.2656-0.32031 6.2344-0.96875 1.9766-0.64453 3.9844-1.6602 6.0156-3.0469z"/>
  </symbol>
  <symbol id="e" overflow="visible">
   <path d="m16.031-40.953v9.0625h10.516v7.2812h-10.516v13.531c0 1.4805 0.28906 2.4805 0.875 3 0.59375 0.52344 1.7656 0.78125 3.5156 0.78125h5.2344v7.2969h-8.7344c-4.0312 0-6.8867-0.83594-8.5625-2.5156-1.6797-1.6875-2.5156-4.5391-2.5156-8.5625v-13.531h-5.0781v-7.2812h5.0781v-9.0625z"/>
  </symbol>
  <symbol id="a" overflow="visible">
   <path d="m26.594-27.234v-17.078h10.266v44.312h-10.266v-4.6094c-1.3984 1.875-2.9453 3.25-4.6406 4.125-1.6875 0.875-3.6406 1.3125-5.8594 1.3125-3.9297 0-7.1562-1.5625-9.6875-4.6875-2.5234-3.125-3.7812-7.1445-3.7812-12.062 0-4.9141 1.2578-8.9375 3.7812-12.062 2.5312-3.125 5.7578-4.6875 9.6875-4.6875 2.1953 0 4.1445 0.44531 5.8438 1.3281 1.707 0.88672 3.2578 2.2578 4.6562 4.1094zm-6.7188 20.656c2.1875 0 3.8516-0.79688 5-2.3906 1.1445-1.5938 1.7188-3.9102 1.7188-6.9531 0-3.0391-0.57422-5.3594-1.7188-6.9531-1.1484-1.5938-2.8125-2.3906-5-2.3906-2.168 0-3.8242 0.79688-4.9688 2.3906-1.1484 1.5938-1.7188 3.9141-1.7188 6.9531 0 3.043 0.57031 5.3594 1.7188 6.9531 1.1445 1.5938 2.8008 2.3906 4.9688 2.3906z"/>
  </symbol>
  <symbol id="d" overflow="visible">
   <path d="m21.875-6.5781c2.1758 0 3.8359-0.79688 4.9844-2.3906 1.1562-1.5938 1.7344-3.9102 1.7344-6.9531 0-3.0391-0.57812-5.3594-1.7344-6.9531-1.1484-1.5938-2.8086-2.3906-4.9844-2.3906-2.1875 0-3.8672 0.80469-5.0312 2.4062-1.168 1.6055-1.75 3.918-1.75 6.9375 0 3.0234 0.58203 5.3359 1.75 6.9375 1.1641 1.6055 2.8438 2.4062 5.0312 2.4062zm-6.7812-20.656c1.4062-1.8516 2.9609-3.2227 4.6719-4.1094 1.707-0.88281 3.6719-1.3281 5.8906-1.3281 3.9375 0 7.1641 1.5625 9.6875 4.6875 2.5195 3.125 3.7812 7.1484 3.7812 12.062 0 4.918-1.2617 8.9375-3.7812 12.062-2.5234 3.125-5.75 4.6875-9.6875 4.6875-2.2188 0-4.1836-0.44531-5.8906-1.3281-1.7109-0.88281-3.2656-2.2539-4.6719-4.1094v4.6094h-10.188v-44.312h10.188z"/>
  </symbol>
  <symbol id="c" overflow="visible">
   <path d="m5.3594-42.516h10.953v38.391c0 5.2891-1.4375 9.2422-4.3125 11.859-2.875 2.625-7.2266 3.9375-13.047 3.9375h-2.2344v-8.2812h1.7188c2.2695 0 3.9883-0.63672 5.1562-1.9062 1.1758-1.2734 1.7656-3.1406 1.7656-5.6094z"/>
  </symbol>
  <symbol id="b" overflow="visible">
   <path d="m31.156-7.75h-17.141l-2.7031 7.75h-11.031l15.75-42.516h13.078l15.75 42.516h-11.031zm-14.406-7.8906h11.641l-5.8125-16.906z"/>
  </symbol>
 </defs>
 <g>
  <path d="m408.33 304.62c-3.1562 0.019531-6.1875-1.2461-8.3984-3.5-13.16-13.398-31.152-20.941-49.934-20.941s-36.773 7.543-49.934 20.941c-3.3086 3.4336-8.3789 4.5078-12.797 2.7109-4.418-1.8008-7.2969-6.1094-7.2695-10.879v-129.62c0-6.4414 5.2227-11.664 11.668-11.664h116.66c3.0938 0 6.0625 1.2266 8.25 3.4141 2.1875 2.1914 3.418 5.1562 3.418 8.25v129.62c0 3.0938-1.2305 6.0625-3.418 8.25s-5.1562 3.418-8.25 3.418zm-58.332-47.949c16.391 0.027343 32.488 4.375 46.668 12.598v-94.266h-93.336v94.266c14.18-8.2227 30.277-12.57 46.668-12.598z"/>
  <path d="m408.33 490h-116.66c-6.4453 0-11.668-5.2227-11.668-11.668v-71.281c-0.027344-4.7695 2.8516-9.0781 7.2695-10.879 4.418-1.7969 9.4883-0.72266 12.797 2.7109 13.16 13.398 31.152 20.941 49.934 20.941s36.773-7.543 49.934-20.941c3.3086-3.4336 8.3789-4.5078 12.797-2.7109 4.418 1.8008 7.2969 6.1094 7.2695 10.879v71.281c0 3.0938-1.2305 6.0625-3.418 8.25s-5.1562 3.418-8.25 3.418zm-105-23.332h93.332l0.003907-35.934c-28.965 16.34-64.371 16.34-93.336 0z"/>
  <path d="m291.67 513.33h-46.668c-9.2812 0-18.184-3.6875-24.75-10.25-6.5625-6.5625-10.25-15.465-10.25-24.75v-315c0-9.2812 3.6875-18.184 10.25-24.746 6.5664-6.5664 15.469-10.254 24.75-10.254h46.668c3.0938 0 6.0586 1.2305 8.25 3.418 2.1875 2.1875 3.4141 5.1562 3.4141 8.25v152.95c-0.011719 3.0625-1.2266 5.9961-3.3828 8.168-12.754 13.074-19.895 30.617-19.895 48.883s7.1406 35.809 19.895 48.883c2.1562 2.1719 3.3711 5.1055 3.3828 8.168v94.617c0 3.0938-1.2266 6.0586-3.4141 8.25-2.1914 2.1875-5.1562 3.4141-8.25 3.4141zm-46.668-361.66c-6.4414 0-11.668 5.2227-11.668 11.664v315c0 3.0938 1.2305 6.0625 3.418 8.25s5.1562 3.418 8.25 3.418h35v-78.398c-14.965-17.035-23.215-38.93-23.215-61.602s8.25-44.566 23.215-61.602v-136.73z"/>
  <path d="m455 513.33h-46.668c-6.4414 0-11.664-5.2227-11.664-11.664v-94.734c0.011719-3.0625 1.2266-5.9922 3.3828-8.168 12.684-13.062 19.781-30.555 19.781-48.766s-7.0977-35.703-19.781-48.766c-2.1562-2.1758-3.3711-5.1055-3.3828-8.168v-153.07c0-6.4414 5.2227-11.668 11.664-11.668h46.668c9.2812 0 18.184 3.6875 24.75 10.254 6.5625 6.5625 10.25 15.465 10.25 24.746v315c0 9.2852-3.6875 18.188-10.25 24.75-6.5664 6.5625-15.469 10.25-24.75 10.25zm-35-23.332h35c3.0938 0 6.0625-1.2305 8.25-3.418s3.418-5.1562 3.418-8.25v-315c0-3.0938-1.2305-6.0586-3.418-8.25-2.1875-2.1875-5.1562-3.4141-8.25-3.4141h-35v136.85c14.898 17.02 23.113 38.867 23.113 61.484s-8.2148 44.465-23.113 61.484z"/>
  <path d="m431.67 151.67c-6.4453 0-11.668-5.2266-11.668-11.668v-58.332c0-3.0938-1.2305-6.0625-3.418-8.25s-5.1562-3.418-8.25-3.418h-116.66c-6.4453 0-11.668 5.2227-11.668 11.668v58.332c0 6.4414-5.2227 11.668-11.668 11.668-6.4414 0-11.664-5.2266-11.664-11.668v-58.332c0-9.2852 3.6875-18.188 10.25-24.75s15.465-10.25 24.75-10.25h116.66c9.2852 0 18.188 3.6875 24.75 10.25s10.25 15.465 10.25 24.75v58.332c0 3.0938-1.2266 6.0625-3.4141 8.25-2.1914 2.1875-5.1562 3.418-8.25 3.418z"/>
  <path d="m373.33 175h-46.664c-6.4453 0-11.668-5.2227-11.668-11.668v-46.664c0-6.4453 5.2227-11.668 11.668-11.668h46.668-0.003907c3.0938 0 6.0625 1.2305 8.25 3.418s3.418 5.1562 3.418 8.25v46.668-0.003907c0 3.0938-1.2305 6.0625-3.418 8.25s-5.1562 3.418-8.25 3.418zm-35-23.332h23.332l0.003907-23.336h-23.336z"/>
  <path d="m361.67 221.67c0 6.4414-5.2266 11.664-11.668 11.664s-11.668-5.2227-11.668-11.664c0-6.4453 5.2266-11.668 11.668-11.668s11.668 5.2227 11.668 11.668"/>
  <path d="m175 466.67c-6.4414 0-11.668-5.2266-11.668-11.668v-210c0-6.4414 5.2266-11.668 11.668-11.668s11.668 5.2266 11.668 11.668v210c0 3.0938-1.2305 6.0625-3.418 8.25s-5.1562 3.418-8.25 3.418z"/>
  <path d="m525 466.67c-6.4414 0-11.668-5.2266-11.668-11.668v-210c0-6.4414 5.2266-11.668 11.668-11.668s11.668 5.2266 11.668 11.668v210c0 3.0938-1.2305 6.0625-3.418 8.25s-5.1562 3.418-8.25 3.418z"/>
  <path d="m350 396.67c-12.375 0-24.246-4.918-33-13.668-8.75-8.7539-13.668-20.625-13.668-33s4.918-24.246 13.668-33c8.7539-8.75 20.625-13.668 33-13.668s24.246 4.918 33 13.668c8.75 8.7539 13.668 20.625 13.668 33s-4.918 24.246-13.668 33c-8.7539 8.75-20.625 13.668-33 13.668zm0-70c-6.1875 0-12.125 2.457-16.5 6.832s-6.832 10.312-6.832 16.5 2.457 12.125 6.832 16.5 10.312 6.832 16.5 6.832 12.125-2.457 16.5-6.832 6.832-10.312 6.832-16.5-2.457-12.125-6.832-16.5-10.312-6.832-16.5-6.832z"/>
  <use x="70" y="735" xlink:href="#f"/>
  <use x="220.503906" y="735" xlink:href="#e"/>
  <use x="287.953125" y="735" xlink:href="#a"/>
  <use x="350.015625" y="735" xlink:href="#d"/>
  <use x="450.105469" y="735" xlink:href="#c"/>
  <use x="540.65625" y="735" xlink:href="#a"/>
  <use x="683.609375" y="735" xlink:href="#b"/>
 </g>
</svg>
