<?xml version="1.0" encoding="UTF-8"?>
<svg width="700pt" height="700pt" version="1.1" viewBox="0 0 700 700" xmlns="http://www.w3.org/2000/svg" xmlns:xlink="http://www.w3.org/1999/xlink">
 <defs>
  <symbol id="n" overflow="visible">
   <path d="m29.312-1.75c-1.5117 0.78125-3.0898 1.3711-4.7344 1.7656-1.6367 0.40625-3.3398 0.60938-5.1094 0.60938-5.3125 0-9.5273-1.4844-12.641-4.4531-3.1055-2.9688-4.6562-7-4.6562-12.094s1.5508-9.125 4.6562-12.094c3.1133-2.9688 7.3281-4.4531 12.641-4.4531 1.7695 0 3.4727 0.19922 5.1094 0.59375 1.6445 0.39844 3.2227 0.99219 4.7344 1.7812v6.5938c-1.5312-1.0391-3.0391-1.8008-4.5156-2.2812-1.4805-0.48828-3.0391-0.73438-4.6719-0.73438-2.9375 0-5.2461 0.94531-6.9219 2.8281-1.6797 1.875-2.5156 4.4648-2.5156 7.7656 0 3.293 0.83594 5.8828 2.5156 7.7656 1.6758 1.875 3.9844 2.8125 6.9219 2.8125 1.6328 0 3.1914-0.23828 4.6719-0.71875 1.4766-0.48828 2.9844-1.2539 4.5156-2.2969z"/>
  </symbol>
  <symbol id="i" overflow="visible">
   <path d="m21.453-17.406c-0.67969-0.3125-1.3516-0.53906-2.0156-0.6875-0.65625-0.15625-1.3203-0.23438-1.9844-0.23438-1.9688 0-3.4844 0.63281-4.5469 1.8906-1.0547 1.2617-1.5781 3.0703-1.5781 5.4219v11.016h-7.6562v-23.922h7.6562v3.9219c0.97656-1.5625 2.1016-2.7031 3.375-3.4219 1.2812-0.71875 2.8125-1.0781 4.5938-1.0781 0.25 0 0.52344 0.011719 0.82812 0.03125 0.30078 0.023438 0.73438 0.070312 1.2969 0.14062z"/>
  </symbol>
  <symbol id="a" overflow="visible">
   <path d="m27.562-12.031v2.1875h-17.891c0.1875 1.793 0.83203 3.1367 1.9375 4.0312 1.1133 0.89844 2.6719 1.3438 4.6719 1.3438 1.6016 0 3.25-0.23438 4.9375-0.70312 1.6875-0.47656 3.4219-1.2031 5.2031-2.1719v5.8906c-1.8047 0.6875-3.6094 1.2031-5.4219 1.5469-1.8125 0.35156-3.6211 0.53125-5.4219 0.53125-4.3359 0-7.7031-1.0977-10.109-3.2969-2.3984-2.207-3.5938-5.2969-3.5938-9.2656 0-3.9062 1.1758-6.9727 3.5312-9.2031 2.3633-2.2383 5.6094-3.3594 9.7344-3.3594 3.7578 0 6.7695 1.1367 9.0312 3.4062 2.2578 2.2617 3.3906 5.2812 3.3906 9.0625zm-7.8594-2.5312c0-1.457-0.42969-2.6289-1.2812-3.5156-0.84375-0.89453-1.9492-1.3438-3.3125-1.3438-1.4922 0-2.6992 0.41797-3.625 1.25-0.91797 0.83594-1.4922 2.0391-1.7188 3.6094z"/>
  </symbol>
  <symbol id="h" overflow="visible">
   <path d="m14.391-10.766c-1.5938 0-2.793 0.27344-3.5938 0.8125-0.80469 0.54297-1.2031 1.3398-1.2031 2.3906 0 0.96875 0.32031 1.7305 0.96875 2.2812 0.64453 0.54297 1.5469 0.8125 2.7031 0.8125 1.4375 0 2.6445-0.51562 3.625-1.5469 0.98828-1.0312 1.4844-2.3203 1.4844-3.875v-0.875zm11.688-2.8906v13.656h-7.7031v-3.5469c-1.0312 1.4492-2.1875 2.5078-3.4688 3.1719s-2.8398 1-4.6719 1c-2.4805 0-4.4961-0.72266-6.0469-2.1719-1.543-1.4453-2.3125-3.3203-2.3125-5.625 0-2.8125 0.96094-4.8672 2.8906-6.1719 1.9375-1.3125 4.9688-1.9688 9.0938-1.9688h4.5156v-0.60938c0-1.207-0.48047-2.0938-1.4375-2.6562-0.94922-0.5625-2.4375-0.84375-4.4688-0.84375-1.6367 0-3.1562 0.16797-4.5625 0.5-1.4062 0.32422-2.7188 0.8125-3.9375 1.4688v-5.8281c1.6445-0.40625 3.2891-0.70703 4.9375-0.90625 1.6562-0.20703 3.3047-0.3125 4.9531-0.3125 4.3203 0 7.4375 0.85547 9.3438 2.5625 1.9141 1.6992 2.875 4.4609 2.875 8.2812z"/>
  </symbol>
  <symbol id="g" overflow="visible">
   <path d="m12.031-30.719v6.7969h7.875v5.4688h-7.875v10.141c0 1.1172 0.21875 1.8711 0.65625 2.2656 0.4375 0.38672 1.3125 0.57812 2.625 0.57812h3.9375v5.4688h-6.5625c-3.0234 0-5.1641-0.62891-6.4219-1.8906-1.2617-1.2578-1.8906-3.3984-1.8906-6.4219v-10.141h-3.7969v-5.4688h3.7969v-6.7969z"/>
  </symbol>
  <symbol id="f" overflow="visible">
   <path d="m19.953-20.422v-12.812h7.6875v33.234h-7.6875v-3.4531c-1.0547 1.4062-2.2148 2.4375-3.4844 3.0938-1.2734 0.65625-2.7422 0.98438-4.4062 0.98438-2.9492 0-5.3711-1.1719-7.2656-3.5156-1.8867-2.3438-2.8281-5.3594-2.8281-9.0469s0.94141-6.7031 2.8281-9.0469c1.8945-2.3438 4.3164-3.5156 7.2656-3.5156 1.6562 0 3.1172 0.33594 4.3906 1 1.2812 0.65625 2.4453 1.6836 3.5 3.0781zm-5.0469 15.484c1.6445 0 2.8945-0.59766 3.75-1.7969 0.86328-1.1953 1.2969-2.9297 1.2969-5.2031 0-2.2812-0.43359-4.0195-1.2969-5.2188-0.85547-1.1953-2.1055-1.7969-3.75-1.7969-1.625 0-2.8711 0.60156-3.7344 1.7969-0.85547 1.1992-1.2812 2.9375-1.2812 5.2188 0 2.2734 0.42578 4.0078 1.2812 5.2031 0.86328 1.1992 2.1094 1.7969 3.7344 1.7969z"/>
  </symbol>
  <symbol id="e" overflow="visible">
   <path d="m16.406-4.9375c1.6328 0 2.8828-0.59766 3.75-1.7969 0.86328-1.1953 1.2969-2.9297 1.2969-5.2031 0-2.2812-0.43359-4.0195-1.2969-5.2188-0.86719-1.1953-2.1172-1.7969-3.75-1.7969-1.6367 0-2.8906 0.60547-3.7656 1.8125-0.875 1.1992-1.3125 2.9336-1.3125 5.2031 0 2.2617 0.4375 3.9961 1.3125 5.2031 0.875 1.1992 2.1289 1.7969 3.7656 1.7969zm-5.0781-15.484c1.0508-1.3945 2.2188-2.4219 3.5-3.0781 1.2812-0.66406 2.7539-1 4.4219-1 2.9453 0 5.3672 1.1719 7.2656 3.5156 1.8945 2.3438 2.8438 5.3594 2.8438 9.0469s-0.94922 6.7031-2.8438 9.0469c-1.8984 2.3438-4.3203 3.5156-7.2656 3.5156-1.668 0-3.1406-0.33594-4.4219-1s-2.4492-1.6914-3.5-3.0781v3.4531h-7.6562v-33.234h7.6562z"/>
  </symbol>
  <symbol id="d" overflow="visible">
   <path d="m0.53125-23.922h7.6562l6.4219 16.234 5.4688-16.234h7.6562l-10.062 26.188c-1.0117 2.6641-2.1953 4.5234-3.5469 5.5781-1.3438 1.0625-3.1211 1.5938-5.3281 1.5938h-4.4219v-5.0156h2.3906c1.3008 0 2.2422-0.21094 2.8281-0.625 0.59375-0.40625 1.0547-1.1484 1.3906-2.2188l0.20312-0.65625z"/>
  </symbol>
  <symbol id="c" overflow="visible">
   <path d="m0.21875-31.891h29.391v6.2188h-10.578v25.672h-8.2188v-25.672h-10.594z"/>
  </symbol>
  <symbol id="b" overflow="visible">
   <path d="m15.062-19.031c-1.6992 0-2.9961 0.60938-3.8906 1.8281-0.88672 1.2188-1.3281 2.9766-1.3281 5.2656 0 2.293 0.44141 4.0469 1.3281 5.2656 0.89453 1.2188 2.1914 1.8281 3.8906 1.8281 1.6641 0 2.9375-0.60938 3.8125-1.8281 0.88281-1.2188 1.3281-2.9727 1.3281-5.2656 0-2.2891-0.44531-4.0469-1.3281-5.2656-0.875-1.2188-2.1484-1.8281-3.8125-1.8281zm0-5.4688c4.1133 0 7.3281 1.1094 9.6406 3.3281s3.4688 5.2969 3.4688 9.2344c0 3.9297-1.1562 7.0078-3.4688 9.2344-2.3125 2.2188-5.5273 3.3281-9.6406 3.3281-4.1367 0-7.3711-1.1094-9.7031-3.3281-2.3242-2.2266-3.4844-5.3047-3.4844-9.2344 0-3.9375 1.1602-7.0156 3.4844-9.2344 2.332-2.2188 5.5664-3.3281 9.7031-3.3281z"/>
  </symbol>
  <symbol id="m" overflow="visible">
   <path d="m2.4531-31.891h26.812v4.9688l-17.109 20.703h17.594v6.2188h-27.781v-4.9844l17.109-20.688h-16.625z"/>
  </symbol>
  <symbol id="l" overflow="visible">
   <path d="m4.0156-31.891h8.2188v31.891h-8.2188z"/>
  </symbol>
  <symbol id="k" overflow="visible">
   <path d="m23-23.172v6.2344c-1.0312-0.71875-2.0742-1.2422-3.125-1.5781-1.043-0.34375-2.125-0.51562-3.25-0.51562-2.1367 0-3.8047 0.625-5 1.875-1.1875 1.2422-1.7812 2.9805-1.7812 5.2188 0 2.2305 0.59375 3.9688 1.7812 5.2188 1.1953 1.25 2.8633 1.875 5 1.875 1.1953 0 2.332-0.17578 3.4062-0.53125 1.0703-0.36328 2.0625-0.89453 2.9688-1.5938v6.2656c-1.1875 0.4375-2.4023 0.76562-3.6406 0.98438-1.2305 0.22656-2.4648 0.34375-3.7031 0.34375-4.3125 0-7.6875-1.1094-10.125-3.3281s-3.6562-5.2969-3.6562-9.2344c0-3.9453 1.2188-7.0234 3.6562-9.2344 2.4375-2.2188 5.8125-3.3281 10.125-3.3281 1.25 0 2.4844 0.10938 3.7031 0.32812s2.4297 0.55469 3.6406 1z"/>
  </symbol>
  <symbol id="j" overflow="visible">
   <path d="m27.734-14.562v14.562h-7.7031v-11.156c0-2.0625-0.046875-3.4844-0.14062-4.2656-0.085937-0.78125-0.24219-1.3594-0.46875-1.7344-0.30469-0.5-0.71094-0.88281-1.2188-1.1562-0.51172-0.28125-1.0938-0.42188-1.75-0.42188-1.5938 0-2.8516 0.61719-3.7656 1.8438-0.90625 1.2305-1.3594 2.9375-1.3594 5.125v11.766h-7.6562v-23.922h7.6562v3.5c1.1445-1.3945 2.3633-2.4219 3.6562-3.0781 1.3008-0.66406 2.7383-1 4.3125-1 2.7578 0 4.8516 0.85156 6.2812 2.5469 1.4375 1.6875 2.1562 4.1523 2.1562 7.3906z"/>
  </symbol>
 </defs>
 <g>
  <path d="m628.41 410.54c0.88281-3.5078 0.64844-7.1992-0.66797-10.566-1.3164-3.3672-3.6523-6.2383-6.6797-8.2109l-5.0039-3.2812h-0.003907c-19.277-12.863-42.414-18.66-65.484-16.406l-62.832 4.8984-8.8125-30.625 6.4492-2.5742c4.2227-1.6836 7.625-4.9453 9.4844-9.0938 1.8594-4.1484 2.0312-8.8555 0.48047-13.129l-18.645-51.398c-4.6055-12.477-12.914-23.25-23.812-30.871-10.898-7.625-23.867-11.734-37.168-11.785h-21.961c-7 0-13.055-12.531-15.918-32.375 9.6914-4.125 17.992-10.945 23.914-19.648 5.9258-8.707 9.2227-18.93 9.5039-29.457v-55.789c-0.19141-15.664-7.3359-30.434-19.504-40.305 0.57812-1.1133 1.0977-2.2578 1.5586-3.4297 2.4922-7.5898 2.4492-15.785-0.125-23.352-5.5039-14.492-21.656-23.145-43.18-23.145s-37.676 8.6523-43.199 23.195c-2.5664 7.6016-2.5859 15.836-0.0625 23.449 0.41016 1.1562 0.99609 2.1953 1.5039 3.2891l0.003906 0.003906c-12.164 9.8672-19.309 24.633-19.496 40.293v55.789c0.28125 10.527 3.5781 20.75 9.5039 29.457 5.9219 8.7031 14.223 15.523 23.914 19.648-2.8633 19.844-8.918 32.375-15.918 32.375h-21.961c-13.309 0.050781-26.281 4.1641-37.18 11.797-10.902 7.6289-19.207 18.41-23.809 30.895l-18.664 51.434c-1.5273 4.2656-1.3398 8.9609 0.52344 13.094 1.8633 4.1328 5.2578 7.3789 9.4688 9.0586l6.4492 2.5742-8.8203 30.625-62.633-4.8828c-23.109-2.3047-46.301 3.4727-65.625 16.355l-5.1367 3.3594c-4.043 2.6758-6.793 6.9141-7.5977 11.695-0.80078 4.7852 0.41797 9.6875 3.3672 13.535 2.9531 3.8516 7.3672 6.3047 12.195 6.7773l37.066 3.5h-0.003906c-2.5078 2.8203-4.6523 5.9453-6.3867 9.3008-6.1875 12.383-6.5391 26.879-0.95703 39.547 5.582 12.668 16.516 22.191 29.832 25.98l142.62 40.766c0.61328 4.7188 2.918 9.0508 6.4844 12.191 3.5703 3.1445 8.1602 4.8867 12.914 4.8984h34.949c11.051 0 22.047-1.5938 32.645-4.7344l178.04-52.754c13.258-3.9258 24.094-13.52 29.598-26.199s5.1133-27.148-1.0703-39.512c-1.7695-3.4219-3.9688-6.6055-6.5391-9.4766l37.238-3.5h0.003907c3.5938-0.36328 6.9844-1.8359 9.6992-4.2188 2.7148-2.3789 4.6172-5.5508 5.4453-9.0625zm-278.41-358.04c9.7773-0.49219 19.426 2.4297 27.285 8.2695 7.8594 5.8398 13.441 14.234 15.793 23.738-3.9375-2.7305-7.2812-6.2305-9.8281-10.289-2.6719-4.0352-6.8945-6.7812-11.664-7.5859-4.7109-0.79297-9.543 0.40234-13.344 3.2969-15.129 10.676-33.07 16.656-51.582 17.195 1.6953-10.094 7.0547-19.207 15.055-25.598 7.9961-6.3867 18.066-9.6016 28.285-9.0273zm-26.82-23.145c2.8203-7.418 12.82-11.855 26.82-11.855s24 4.4375 26.801 11.805c1.1523 3.7031 1.1523 7.6719 0 11.375-17.066-7.5195-36.508-7.5195-53.574 0-1.1641-3.6836-1.1797-7.6328-0.046874-11.324zm-16.93 116.66v-41.395c22.402-0.48438 44.133-7.7227 62.352-20.766 5.6289 9.5273 14.59 16.637 25.148 19.949v42.211c0 20.801-19.625 37.73-43.75 37.73s-43.75-16.93-43.75-37.73zm43.75 55.23c3.6484-0.015625 7.293-0.32422 10.895-0.92578 1.207 12.871 5.9375 25.16 13.668 35.523l-0.50781 0.40234c-6.7461 5.6523-15.266 8.75-24.062 8.75-8.8008 0-17.32-3.0977-24.062-8.75l-0.48047-0.40234c7.7266-10.363 12.457-22.652 13.664-35.523 3.5977 0.60156 7.2383 0.91016 10.887 0.92578zm-110.25 74.945c3.3633-9.1172 9.4297-16.988 17.391-22.562 7.957-5.5742 17.43-8.5859 27.148-8.6328h21.961c0.875 0 1.75-0.050781 2.625-0.14062l5.8359 4.8398c9.8867 8.2773 22.367 12.812 35.262 12.812 12.895 0 25.379-4.5352 35.262-12.812l5.8711-4.8633c0.875 0.085937 1.75 0.14062 2.625 0.14062h21.961l0.003906-0.003906c9.7148 0.042969 19.184 3.0469 27.145 8.6172 7.9609 5.5703 14.027 13.438 17.395 22.551l18.629 51.355-57.031 22.793h-0.003906c3.8477-13.789 8.7852-27.246 14.77-40.25 2.1172-4.3477 0.30859-9.5898-4.043-11.707-4.3477-2.1172-9.5898-0.30859-11.707 4.043-1.3203 2.7227-28.938 60.375-21.621 105.63-16.312 2.2148-32.762 3.2969-49.227 3.2461-16.477 0.070312-32.934-1-49.262-3.2031 7.3164-45.273-20.301-102.92-21.621-105.63-2.1172-4.3516-7.3594-6.1602-11.707-4.043-4.3516 2.1172-6.1602 7.3594-4.043 11.707 5.9844 13.004 10.922 26.465 14.77 40.25l-57.023-22.812zm40.637 140.99c-4.7539 11.848-9.1055 21.812-13.055 29.898l-28.797-10.402v-0.003907c9.0703-2.1562 16.305-8.9922 18.977-17.926l15.504-51.625 9.7461 3.8945 0.003906-0.003906c3.2852 15.332 2.457 31.258-2.3984 46.168zm-186.71-14.141c16.02-10.668 35.242-15.445 54.391-13.52l62.781 4.8984c4.0273 0.32812 8.0469-0.75 11.371-3.0469s5.75-5.6758 6.8633-9.5586l8.3203-28.938 19.25 7.6992-15.969 53.191h0.003906c-1.1797 3.9766-4.9883 6.5742-9.1172 6.2305l-53.375-5.0742-4.375-1.5742c-8.0312-2.6836-16.641-3.1094-24.895-1.2266l-60.375-5.7305zm38.895 66.078c-3.0234-6.8672-3.2695-14.645-0.68359-21.691 2.5859-7.0469 7.8047-12.816 14.559-16.098 6.75-3.2812 14.512-3.8164 21.652-1.4961l122.83 44.414c2.1914 0.82812 4.6211 0.73828 6.75-0.24219 2.125-0.98047 3.7695-2.7695 4.5664-4.9727s0.67188-4.6328-0.33594-6.7461c-1.0117-2.1133-2.8281-3.7344-5.0391-4.4961l-13.02-4.6992c3.75-7.8242 7.8203-17.156 12.207-28h-0.003906c17.871 2.5352 35.898 3.7578 53.945 3.6562 18.047 0.078125 36.07-1.1641 53.934-3.7188 5.1445 13.23 11.035 26.16 17.648 38.719l-46.207 22.383-51.301-18.543c-4.5469-1.6406-9.5625 0.71094-11.203 5.2539-1.6445 4.5469 0.70703 9.5625 5.2539 11.207l35.234 12.73-53.828 26.031-0.23438 0.12109h-0.003906c-1.6953 0.90625-3.2539 2.0508-4.6211 3.4062l-143.5-41.004c-8.3086-2.3555-15.133-8.3008-18.602-16.215zm175.83 73.379c-0.97266 0-1.8281-0.65625-2.0781-1.5938-0.25391-0.94141 0.16016-1.9336 1.0039-2.4219l43.488-21 10.402 23.266c-5.8906 1.1328-11.871 1.7188-17.867 1.75zm259.18-73.148c-3.4414 7.9336-10.223 13.934-18.516 16.379l-170.69 50.574-11.805-26.477 165.43-80.02c7.168-2.2422 14.922-1.6406 21.656 1.6797 6.7344 3.3164 11.938 9.1016 14.523 16.148 2.5898 7.0508 2.3672 14.824-0.62109 21.715zm-16.758-57.227c-8.2383-1.8555-16.828-1.4258-24.84 1.2422-0.35938 0.11328-0.70703 0.25391-1.043 0.42187l-2.0039 0.97266-54.492 5.2383c-4.1602 0.39844-8.0156-2.2227-9.1719-6.2383l-5.3828-17.922h0.003906c-1.3945-4.6289-6.2734-7.2539-10.906-5.8594-4.6289 1.3906-7.2539 6.2695-5.8594 10.902l5.3633 17.867c1.6133 5.4102 4.9297 10.16 9.457 13.539 4.5273 3.3789 10.023 5.207 15.672 5.2109 0.82422 0 1.6445 0 2.4766-0.11328l7.5703-0.72656-40.312 19.496c-6.6836-12.621-12.602-25.633-17.719-38.965-4.8555-14.918-5.6758-30.855-2.3789-46.191l9.7461-3.8945 2.7578 9.1445c0.625 2.2695 2.1367 4.1953 4.1992 5.3359 2.0625 1.1406 4.4961 1.4023 6.7539 0.72266 2.2539-0.67578 4.1406-2.2344 5.2344-4.3242 1.0938-2.0859 1.2969-4.5273 0.56641-6.7656l-3.2031-10.656 19.25-7.6992 8.3125 28.875v-0.003906c1.1016 3.9023 3.5273 7.3008 6.8555 9.6172 3.3281 2.3125 7.3555 3.3984 11.398 3.0703l63-4.918v0.003906c19.109-1.8984 38.285 2.8984 54.25 13.57l5.1094 3.3086z"/>
  <use x="70" y="691.25" xlink:href="#n"/>
  <use x="102.109375" y="691.25" xlink:href="#i"/>
  <use x="123.683594" y="691.25" xlink:href="#a"/>
  <use x="153.355469" y="691.25" xlink:href="#h"/>
  <use x="182.878906" y="691.25" xlink:href="#g"/>
  <use x="203.792969" y="691.25" xlink:href="#a"/>
  <use x="233.464844" y="691.25" xlink:href="#f"/>
  <use x="280.011719" y="691.25" xlink:href="#e"/>
  <use x="311.328125" y="691.25" xlink:href="#d"/>
  <use x="355.078125" y="691.25" xlink:href="#c"/>
  <use x="384.921875" y="691.25" xlink:href="#b"/>
  <use x="414.980469" y="691.25" xlink:href="#m"/>
  <use x="446.703125" y="691.25" xlink:href="#l"/>
  <use x="462.980469" y="691.25" xlink:href="#k"/>
  <use x="488.914062" y="691.25" xlink:href="#b"/>
  <use x="518.972656" y="691.25" xlink:href="#j"/>
 </g>
</svg>
