<svg width="2162" height="630" viewBox="0 0 2162 630" fill="none" xmlns="http://www.w3.org/2000/svg">
<mask id="mask0_256_112" style="mask-type:alpha" maskUnits="userSpaceOnUse" x="0" y="0" width="2162" height="630">
<rect width="2162" height="630" fill="#D9D9D9"/>
</mask>
<g mask="url(#mask0_256_112)">
<path d="M1742.74 377.595C1707.49 365.439 1684.15 338.648 1662.62 309.695C1644.37 285.198 1627.16 259.436 1605.93 237.734C1580.85 212.104 1548.42 207.067 1514.48 219.276C1489.27 228.4 1472.33 247.649 1457.05 268.849C1437.61 295.587 1418.64 323.011 1396.22 347.112C1372.01 373.138 1340.21 386.138 1303.75 385.875C1258.87 385.558 1214 385.558 1169.12 385.875C1166.72 385.875 1115.72 391.386 1114.3 390.806V432.178C1128.71 432.178 1191.83 432.732 1205.74 432.02C1247.42 429.858 1289.31 434.657 1330.91 428.144C1376.25 420.971 1415.21 400.008 1444.19 364.015C1465.64 337.488 1485.69 309.8 1505.39 281.928C1524.39 255.058 1557.56 251.472 1580.16 275.521C1587.83 283.695 1593.89 293.346 1600.87 302.18C1624.03 331.423 1642.23 364.226 1673.45 387.404C1706.39 412.425 1745.59 427.864 1786.74 432.02V387.193C1771.75 385.682 1756.99 382.462 1742.74 377.595V377.595Z" fill="#284D84"/>
<path d="M1731.73 385.927C1686.87 385.663 1642 385.663 1597.1 385.927C1560.64 386.191 1528.84 373.191 1504.63 347.165C1481.45 322.246 1464.14 296.906 1443.8 268.902C1428.41 247.807 1411.58 228.452 1386.37 219.328C1352.43 207.014 1320 212.051 1294.92 237.787C1273.69 259.488 1256.48 285.251 1238.22 309.747C1216.7 338.753 1193.44 365.491 1158.11 377.647C1144.67 382.288 1130.23 384.055 1114.82 387.246V432.073C1155.7 427.818 1194.63 412.413 1227.37 387.536C1258.59 364.357 1276.79 331.554 1299.95 302.311C1306.93 293.478 1312.99 283.853 1320.66 275.652C1343.26 251.604 1376.43 255.19 1395.43 282.06C1415.13 309.932 1435.18 337.619 1456.63 364.146C1485.74 400.14 1524.94 419.125 1569.91 428.275C1611.57 436.714 1653.4 429.99 1695.08 432.152C1707.81 432.811 1773.83 432.495 1786.97 432.336V385.874L1731.73 385.927Z" fill="#88CF00"/>
<path d="M1158.4 440.353C1193.65 452.535 1216.99 479.326 1238.54 508.252C1256.77 532.776 1273.98 558.538 1295.21 580.24C1320.29 605.844 1352.72 610.88 1386.65 598.566C1411.87 589.442 1428.81 570.219 1444.09 548.992C1463.53 522.254 1482.5 494.831 1504.92 470.73C1529.13 444.703 1560.96 431.73 1597.39 431.967C1642.27 432.284 1687.14 432.284 1732.02 431.967C1734.44 431.967 1785.45 432.178 1786.84 432.758V385.743C1772.43 385.743 1709.31 385.743 1695.4 385.901C1653.8 385.901 1611.88 381.339 1570.23 389.803C1525.23 398.927 1485.92 417.913 1456.94 453.933C1435.5 480.302 1415.45 508.121 1395.74 535.993C1376.75 562.862 1343.58 566.449 1320.98 542.4C1313.31 534.226 1307.25 524.575 1300.27 515.741C1277.11 486.498 1258.91 453.722 1227.69 430.517C1194.75 405.492 1155.55 390.053 1114.4 385.901V430.728C1129.39 432.241 1144.15 435.47 1158.4 440.353V440.353Z" fill="#002C4B"/>
<path fill-rule="evenodd" clip-rule="evenodd" d="M-14 432.047V385.716L1206.06 385.848C1206.06 385.848 1289.6 381.471 1331.22 389.935C1376.2 399.059 1415.53 418.045 1444.51 454.065C1465.95 480.434 1485.98 508.121 1505.66 535.993C1524.65 562.863 1557.85 566.449 1580.43 542.4C1585.2 537.22 1589.42 531.472 1593.65 525.714C1596.11 522.357 1598.58 518.995 1601.16 515.742C1607.47 507.762 1613.42 499.519 1619.36 491.279C1635.19 469.323 1651.01 447.39 1673.71 430.517C1706.71 405.588 1745.88 390.152 1787 385.875V386.001L3010.25 386.133C3010.25 386.133 3094.01 381.749 3135.74 390.227C3180.83 399.366 3220.27 418.382 3249.32 454.461C3270.82 480.873 3290.9 508.605 3310.63 536.523C3329.67 563.436 3362.96 567.028 3385.59 542.941C3390.38 537.752 3394.61 531.994 3398.85 526.227C3401.32 522.864 3403.79 519.497 3406.38 516.238C3412.71 508.246 3418.67 499.989 3424.63 491.736C3440.51 469.745 3456.37 447.775 3479.13 430.875C3512.21 405.905 3551.48 390.444 3592.71 386.16V432.618C3587.97 433.412 3583.34 434.041 3578.83 434.656C3568.15 436.109 3558.09 437.479 3548.62 440.727C3513.2 452.929 3489.88 479.684 3468.3 508.737C3464.29 514.11 3460.34 519.541 3456.38 524.977C3442.25 544.393 3428.09 563.859 3411.45 580.842C3386.31 606.488 3353.79 611.532 3319.77 599.198C3294.49 590.059 3277.64 570.673 3262.19 549.544C3259.49 545.841 3256.81 542.126 3254.13 538.408C3237.39 515.231 3220.59 491.956 3201.2 471.153C3176.92 445.085 3145.04 432.143 3108.48 432.407H1787V432.258C1782.28 433.05 1777.66 433.678 1773.15 434.292C1762.51 435.743 1752.47 437.111 1743.03 440.353C1707.7 452.535 1684.44 479.247 1662.91 508.253C1658.92 513.616 1654.98 519.038 1651.03 524.465C1636.94 543.85 1622.81 563.284 1606.22 580.24C1581.14 605.844 1548.71 610.88 1514.77 598.566C1489.56 589.443 1472.75 570.088 1457.34 548.993C1454.66 545.296 1451.98 541.587 1449.3 537.875C1432.61 514.736 1415.85 491.499 1396.51 470.73C1372.3 444.704 1340.5 431.783 1304.04 432.047H-14Z" fill="#4FA9A3"/>
</g>
</svg>
