<svg width="18" height="19" viewBox="0 0 18 19" fill="none" xmlns="http://www.w3.org/2000/svg">
<path d="M15.308 3.50602C13.6208 1.80934 11.3839 0.889909 8.99525 0.889909C4.07582 0.880431 0.0758293 4.88991 0.0758293 9.80933C0.0758293 11.3828 0.492891 12.9183 1.26066 14.2643L0 18.8899L4.72985 17.6482C6.03791 18.3591 7.5071 18.7382 8.99525 18.7382C13.9147 18.7382 17.9147 14.7288 17.9147 9.81881C17.9147 7.43019 16.9858 5.19322 15.2986 3.50602H15.308ZM8.99525 17.2311C7.65876 17.2311 6.36018 16.8709 5.21326 16.198L4.93838 16.0368L2.1327 16.7762L2.88151 14.0368L2.70142 13.7619C1.96208 12.5866 1.56398 11.2122 1.56398 9.81881C1.56398 5.73351 4.90047 2.39702 8.98577 2.39702C10.9668 2.39702 12.8341 3.17427 14.2275 4.57711C15.6303 5.97995 16.3981 7.84725 16.3981 9.82829C16.417 13.9136 13.0806 17.2406 8.99525 17.2406V17.2311ZM13.0616 11.6861C12.8341 11.5818 11.7346 11.0416 11.5355 10.9562C11.327 10.8804 11.1848 10.852 11.0332 11.0605C10.8815 11.288 10.455 11.7904 10.3317 11.9326C10.2085 12.0842 10.0663 12.1032 9.84833 11.9894C9.62084 11.8852 8.90046 11.6387 8.05686 10.8804C7.39336 10.2833 6.94786 9.55341 6.81516 9.3354C6.69194 9.10791 6.7962 8.99417 6.90995 8.88042C7.00473 8.78564 7.13743 8.61502 7.2417 8.4918C7.34596 8.36858 7.39336 8.26431 7.46919 8.12213C7.54502 7.97047 7.5071 7.84725 7.45023 7.73351C7.39336 7.61976 6.94786 6.52972 6.76777 6.07474C6.58767 5.63872 6.3981 5.69559 6.2654 5.68611H5.82938C5.67772 5.68611 5.44075 5.74299 5.23222 5.961C5.03317 6.18848 4.45497 6.72877 4.45497 7.82829C4.45497 8.92782 5.26066 9.98943 5.36492 10.1316C5.46919 10.2833 6.93838 12.5392 9.17535 13.4965C9.70615 13.7335 10.1232 13.8662 10.4455 13.961C10.9763 14.1316 11.4597 14.1032 11.8483 14.0558C12.2843 13.9894 13.1753 13.5155 13.3554 12.9942C13.545 12.4728 13.545 12.0273 13.4787 11.9326C13.4123 11.8378 13.2796 11.7904 13.0521 11.6766L13.0616 11.6861Z" fill="#272727"/>
</svg>
